<svg width="146" height="37" viewBox="0 0 146 37" fill="none" xmlns="http://www.w3.org/2000/svg">
<path d="M18.2949 25.8638C16.7664 25.8638 15.4506 25.5542 14.3477 24.935C13.2513 24.3094 12.4064 23.4258 11.813 22.2842C11.2197 21.1362 10.923 19.7785 10.923 18.2113C10.923 16.6827 11.2197 15.3412 11.813 14.1867C12.4064 13.0322 13.2416 12.1325 14.3187 11.4875C15.4023 10.8426 16.6728 10.5201 18.1305 10.5201C19.1108 10.5201 20.0234 10.6781 20.8683 10.9941C21.7197 11.3037 22.4614 11.7713 23.0934 12.3969C23.732 13.0225 24.2286 13.8094 24.5833 14.7575C24.938 15.6991 25.1154 16.802 25.1154 18.0662V19.1981L14.9959 19.2077V16.6995L21.236 16.644C21.236 16.0507 21.107 15.525 20.849 15.0671C20.591 14.6092 20.233 14.2512 19.7751 13.9932C19.3236 13.7288 18.798 13.5966 18.1982 13.5966C17.5726 13.5966 17.0179 13.7417 16.5342 14.0319C16.0569 14.3157 15.6828 14.6995 15.4119 15.1832C15.1411 15.6604 15.0024 16.1126 14.9959 16.6995V19.2077C14.9959 19.943 15.1314 20.5783 15.4023 21.1136C15.6796 21.6489 16.0698 22.0617 16.5729 22.3519C17.0759 22.6422 17.6725 22.7873 18.3626 22.7873C18.8206 22.7873 19.2398 22.7228 19.6203 22.5938C20.0008 22.4648 20.3266 22.2713 20.5974 22.0133C20.8683 21.7554 21.0747 21.4393 21.2166 21.0652L25.0283 21.3168C24.8348 22.2326 24.4382 23.0324 23.8384 23.716C23.245 24.3932 22.4775 24.9221 21.5359 25.3026C20.6007 25.6767 19.5203 25.8638 18.2949 25.8638Z" fill="white"/>
<path d="M31.224 11.4972L33.9522 16.6924L36.7481 11.4972H40.9758L36.6707 18.9272L41.0919 26.3572H36.8836L33.9522 21.22L31.0692 26.3572H26.8125L31.224 18.9272L26.9672 11.4972H31.224Z" fill="white"/>
<path d="M49.2773 26.1346C47.7552 26.1346 46.4459 25.8122 45.3495 25.1672C44.2595 24.5158 43.4211 23.6128 42.8341 22.4584C42.2537 21.3039 41.9634 19.9752 41.9634 18.4725C41.9634 16.9504 42.2569 15.6153 42.8438 14.4673C43.4372 13.3128 44.2789 12.4131 45.3688 11.7681C46.4588 11.1167 47.7552 10.791 49.258 10.791C50.5543 10.791 51.6895 11.0264 52.6634 11.4972C53.6373 11.968 54.408 12.6291 54.9756 13.4805C55.5431 14.3318 56.0562 14.9708 56.1142 16.1188L52.0249 16.4795C51.9152 15.7378 51.625 15.1412 51.1542 14.6898C50.6898 14.2319 50.0803 14.0029 49.3257 14.0029C48.6872 14.0029 48.1293 14.177 47.652 14.5253C47.1812 14.8671 46.8136 15.367 46.5491 16.0248C46.2847 16.6827 46.1525 17.4792 46.1525 18.4144C46.1525 19.3625 46.2815 20.1687 46.5394 20.833C46.8039 21.4974 47.1747 22.0037 47.652 22.3519C48.1293 22.7002 48.6872 22.8744 49.3257 22.8744C49.7965 22.8744 50.219 22.7776 50.593 22.5841C50.9736 22.3906 51.2864 22.1101 51.5315 21.7424C51.783 21.3684 51.9475 20.9201 52.0249 20.3977H55.914C55.8495 21.5328 55.5399 22.5325 54.9852 23.3968C54.437 24.2546 53.6792 24.9253 52.7117 25.4091C51.7443 25.8928 50.5995 26.1346 49.2773 26.1346Z" fill="white"/>
<path d="M68.082 19.5173V15.2509V10.9845H72.2033V14.6995L52.0249 16.4795L72.2703 18.9189L52.0249 20.3977L72.2033 25.8444H68.2465V23.1452H68.0917C67.7563 24.0159 67.1984 24.7157 66.418 25.2446C65.6441 25.7735 64.6992 26.0379 63.5834 26.0379C62.5902 26.0379 61.7162 25.8122 60.9616 25.3607C60.207 24.9092 59.6169 24.2675 59.1912 23.4355C58.772 22.6035 58.5591 21.607 58.5527 20.4461V15.7153V10.9845H62.674V15.3476V19.7108C62.6805 20.588 62.9159 21.2813 63.3802 21.7908C63.8446 22.3003 64.467 22.5551 65.2474 22.5551C65.744 22.5551 66.2084 22.4422 66.6405 22.2165C67.0726 21.9843 67.4209 21.6425 67.6854 21.191C67.9563 20.7395 68.0885 20.1816 68.082 19.5173Z" fill="white"/>
<path d="M87.5947 15.1251H84.0134C83.9489 14.8026 83.8876 14.5511 83.6748 14.2931C83.462 14.0287 83.1814 13.8191 82.8331 13.6643C82.4913 13.503 82.0818 13.4224 81.6045 13.4224C80.966 13.4224 80.4274 13.5579 79.9889 13.8287C79.5503 14.0932 79.331 14.4479 79.331 14.8929C79.331 15.2477 79.4729 15.5476 79.7567 15.7927C80.0404 16.0377 80.5274 16.2345 81.2175 16.3828L83.907 16.9246C85.3517 17.2213 86.4288 17.6985 87.1383 18.3564C87.8477 19.0142 88.2025 19.8785 88.2025 20.9491C88.2025 21.923 87.9155 22.7776 87.3414 23.5129C86.7739 24.2481 85.9935 24.8221 85.0002 25.2349C84.0134 25.6412 82.8751 25.8444 81.5851 25.8444C79.618 25.8444 78.0507 25.4349 76.8833 24.6158C75.7224 23.7902 75.3081 22.3179 75.1082 20.8989H78.5136C78.6361 21.4988 79.3149 22.094 79.7857 22.41C80.2565 22.7196 80.8596 22.8744 81.5948 22.8744C82.3172 22.8744 82.8976 22.7357 83.3362 22.4584C83.7812 22.1746 84.007 21.8102 84.0134 21.3651C84.007 20.9911 83.849 20.6847 83.5394 20.4461C83.2298 20.201 82.7525 20.0139 82.1075 19.885L79.5341 19.3722C78.083 19.082 77.0027 18.5789 76.2932 17.863C75.5902 17.1471 75.2387 16.2345 75.2387 15.1251C75.2387 14.1706 75.4967 13.3482 76.0126 12.6581C76.5351 11.968 77.2671 11.4359 78.2087 11.0619C79.1568 10.6878 80.2662 10.5007 81.5368 10.5007C83.4136 10.5007 84.8906 10.8974 85.9677 11.6907C87.0512 12.484 87.4141 13.7578 87.5947 15.1251Z" fill="white"/>
<path d="M97.9277 26.1346C96.3991 26.1346 95.0834 25.8251 93.9805 25.2059C92.8841 24.5803 92.0392 23.6967 91.4458 22.5551C90.8524 21.4071 90.5558 20.0494 90.5558 18.4822C90.5558 16.9536 90.8524 15.6121 91.4458 14.4576C92.0392 13.3031 92.8744 12.4034 93.9515 11.7584C95.035 11.1135 96.3056 10.791 97.7632 10.791C98.7436 10.791 99.6562 10.949 100.501 11.265C101.352 11.5746 102.094 12.0422 102.726 12.6678C103.365 13.2934 103.861 14.0803 104.216 15.0284C104.571 15.97 104.748 17.0729 104.748 18.337V19.469L94.6287 19.4786V16.9149H100.869C100.869 16.3215 100.74 15.7959 100.482 15.338C100.224 14.88 99.8658 14.5221 99.4079 14.2641C98.9564 13.9997 98.4308 13.8674 97.8309 13.8674C97.2053 13.8674 96.6507 14.0126 96.1669 14.3028C95.6897 14.5866 95.3156 14.9703 95.0447 15.4541C94.7738 15.9313 94.6351 16.328 94.6287 16.9149V19.4786C94.6287 20.2139 94.7641 20.8492 95.035 21.3845C95.3124 21.9198 95.7026 22.3326 96.2056 22.6228C96.7087 22.9131 97.3053 23.0582 97.9954 23.0582C98.4533 23.0582 98.8726 22.9937 99.2531 22.8647C99.6336 22.7357 99.9593 22.5422 100.23 22.2842C100.501 22.0262 100.865 21.5633 101.007 21.1892H104.748C104.555 22.105 104.071 23.3033 103.471 23.9869C102.878 24.6641 102.11 25.193 101.169 25.5735C100.233 25.9476 99.1531 26.1346 97.9277 26.1346Z" fill="white"/>
<path d="M107.08 25.8444V10.9845H111.008V13.6062H111.182C111.491 12.7355 112.007 12.0487 112.73 11.5456C113.452 11.0425 114.316 10.791 115.322 10.791C116.341 10.791 117.209 11.0457 117.925 11.5553C118.641 12.0583 119.118 12.742 119.357 13.6062H119.511C119.815 12.7549 120.363 12.0745 121.156 11.5649C121.956 11.049 122.901 10.791 123.991 10.791C125.377 10.791 126.503 11.2328 127.367 12.1164C128.238 12.9935 128.673 14.2383 128.673 15.8507C128.673 17.4631 128.673 25.8444 128.673 25.8444H124.561V16.6634C124.561 15.8378 124.342 15.2186 123.904 14.8059C123.465 14.3931 122.917 14.1867 122.259 14.1867C121.511 14.1867 120.927 14.4253 120.508 14.9026C120.089 15.3734 119.879 15.9958 119.879 16.7698V25.8444H115.883V16.5763C115.883 15.8475 115.674 15.267 115.255 14.8349C114.842 14.4028 114.297 14.1867 113.62 14.1867C113.162 14.1867 112.749 14.3028 112.381 14.535C112.02 14.7607 111.733 15.08 111.52 15.4928C111.307 15.8991 111.201 16.3764 111.201 16.9246V25.8444H107.08Z" fill="white"/>
<path d="M138.701 26.1346C137.172 26.1346 135.856 25.8251 134.753 25.2059C133.657 24.5803 132.812 23.6967 132.219 22.5551C131.625 21.4071 131.329 20.0494 131.329 18.4822C131.329 16.9536 131.625 15.6121 132.219 14.4576C132.812 13.3031 133.647 12.4034 134.724 11.7584C135.808 11.1135 137.079 10.791 138.536 10.791C139.517 10.791 140.429 10.949 141.274 11.265C142.125 11.5746 142.867 12.0422 143.499 12.6678C144.138 13.2934 144.634 14.0803 144.989 15.0284C145.344 15.97 145.521 17.0729 145.521 18.337V19.469L135.402 19.4786V17.0503L141.642 16.9149C141.642 16.3215 141.513 15.7959 141.255 15.338C140.997 14.88 140.639 14.5221 140.181 14.2641C139.729 13.9997 139.204 13.8674 138.604 13.8674C137.978 13.8674 137.424 14.0126 136.94 14.3028C136.463 14.5866 136.089 14.9703 135.818 15.4541C135.547 15.9313 135.408 16.4634 135.402 17.0503V19.4786C135.402 20.2139 135.537 20.8492 135.808 21.3845C136.085 21.9198 136.476 22.3326 136.979 22.6228C137.482 22.9131 138.078 23.0582 138.768 23.0582C139.226 23.0582 139.646 22.9937 140.026 22.8647C140.407 22.7357 140.732 22.5422 141.003 22.2842C141.274 22.0262 141.48 21.7102 141.622 21.3361L145.434 21.5877C145.241 22.5035 144.844 23.3033 144.244 23.9869C143.651 24.6641 142.883 25.193 141.942 25.5735C141.006 25.9476 139.926 26.1346 138.701 26.1346Z" fill="white"/>
<path d="M35.8992 16.6924C34.9778 12.4068 32.503 6.71126 28.9538 4.13865C25.4046 1.56604 21.0296 0.396167 16.67 0.853941C12.3105 1.31172 8.27396 3.36482 5.33651 6.61857C2.39906 9.87231 0.768003 14.097 0.756893 18.4806C0.745783 22.8641 2.35541 27.097 5.27633 30.3656C8.19725 33.6342 12.2233 35.7078 16.5805 36.1876C20.9377 36.6675 25.3185 35.5198 28.8807 32.9652C32.443 30.4106 34.9561 25.5009 35.8992 21.22H32.4938C31.7657 24.5249 29.2699 27.7009 26.5199 29.6731C23.7698 31.6453 20.3878 32.5313 17.024 32.1608C13.6602 31.7903 10.552 30.1896 8.29708 27.6662C6.0421 25.1428 4.79946 21.8749 4.80804 18.4908C4.81662 15.1067 6.07581 11.8452 8.34354 9.33328C10.6113 6.82137 13.7275 5.23636 17.0931 4.88295C20.4587 4.52955 23.8362 5.43269 26.5763 7.41877C29.3163 9.40485 31.7824 13.4548 32.4938 16.7633L35.8992 16.6924Z" fill="white"/>
</svg>
